{
    "asset" : {
        "generator" : "Khronos glTF Blender I/O v1.8.19",
        "version" : "2.0"
    },
    "scene" : 0,
    "scenes" : [
        {
            "name" : "Scene",
            "nodes" : [
                3
            ]
        }
    ],
    "nodes" : [
        {
            "mesh" : 0,
            "name" : "Set_01"
        },
        {
            "mesh" : 1,
            "name" : "Set_02"
        },
        {
            "mesh" : 2,
            "name" : "Set_03"
        },
        {
            "children" : [
                0,
                1,
                2
            ],
            "name" : "F3i"
        }
    ],
    "materials" : [
        {
            "doubleSided" : true,
            "name" : "Set_01",
            "normalTexture" : {
                "index" : 0
            },
            "pbrMetallicRoughness" : {
                "baseColorTexture" : {
                    "index" : 1
                },
                "metallicRoughnessTexture" : {
                    "index" : 2
                }
            }
        },
        {
            "doubleSided" : true,
            "name" : "Set_03",
            "normalTexture" : {
                "index" : 3
            },
            "pbrMetallicRoughness" : {
                "baseColorTexture" : {
                    "index" : 4
                },
                "metallicRoughnessTexture" : {
                    "index" : 5
                }
            }
        },
        {
            "doubleSided" : true,
            "name" : "Set_02",
            "normalTexture" : {
                "index" : 6
            },
            "pbrMetallicRoughness" : {
                "baseColorTexture" : {
                    "index" : 7
                },
                "metallicRoughnessTexture" : {
                    "index" : 8
                }
            }
        },
        {
            "doubleSided" : true,
            "name" : "blinn16",
            "pbrMetallicRoughness" : {
                "baseColorFactor" : [
                    0,
                    0,
                    0,
                    1
                ],
                "metallicFactor" : 0.5,
                "roughnessFactor" : 0.7487671971321106
            }
        },
        {
            "doubleSided" : true,
            "name" : "blinn1",
            "pbrMetallicRoughness" : {
                "baseColorFactor" : [
                    0,
                    0,
                    0,
                    1
                ],
                "metallicFactor" : 0.5,
                "roughnessFactor" : 0.7487671971321106
            }
        }
    ],
    "meshes" : [
        {
            "name" : "Mesh.004",
            "primitives" : [
                {
                    "attributes" : {
                        "POSITION" : 0,
                        "NORMAL" : 1,
                        "TEXCOORD_0" : 2
                    },
                    "indices" : 3,
                    "material" : 0
                },
                {
                    "attributes" : {
                        "POSITION" : 4,
                        "NORMAL" : 5,
                        "TEXCOORD_0" : 6
                    },
                    "indices" : 7,
                    "material" : 1
                }
            ]
        },
        {
            "name" : "Mesh.001",
            "primitives" : [
                {
                    "attributes" : {
                        "POSITION" : 8,
                        "NORMAL" : 9,
                        "TEXCOORD_0" : 10,
                        "COLOR_0" : 11,
                        "COLOR_1" : 12
                    },
                    "indices" : 13,
                    "material" : 2
                }
            ]
        },
        {
            "name" : "Mesh.207",
            "primitives" : [
                {
                    "attributes" : {
                        "POSITION" : 14,
                        "NORMAL" : 15,
                        "TEXCOORD_0" : 16
                    },
                    "indices" : 17,
                    "material" : 1
                },
                {
                    "attributes" : {
                        "POSITION" : 18,
                        "NORMAL" : 19,
                        "TEXCOORD_0" : 20
                    },
                    "indices" : 21,
                    "material" : 3
                },
                {
                    "attributes" : {
                        "POSITION" : 22,
                        "NORMAL" : 23,
                        "TEXCOORD_0" : 24
                    },
                    "indices" : 25,
                    "material" : 4
                }
            ]
        }
    ],
    "textures" : [
        {
            "sampler" : 0,
            "source" : 0
        },
        {
            "sampler" : 0,
            "source" : 1
        },
        {
            "sampler" : 0,
            "source" : 2
        },
        {
            "sampler" : 0,
            "source" : 3
        },
        {
            "sampler" : 0,
            "source" : 4
        },
        {
            "sampler" : 0,
            "source" : 5
        },
        {
            "sampler" : 0,
            "source" : 6
        },
        {
            "sampler" : 0,
            "source" : 7
        },
        {
            "sampler" : 0,
            "source" : 8
        }
    ],
    "images" : [
        {
            "mimeType" : "image/png",
            "name" : "Set_01_Normal",
            "uri" : "Set_01_Normal.png"
        },
        {
            "mimeType" : "image/png",
            "name" : "Set_01_Base_color",
            "uri" : "Set_01_Base_color.png"
        },
        {
            "mimeType" : "image/png",
            "name" : "Set_01_Metallic-Set_01_Roughness",
            "uri" : "Set_01_Metallic-Set_01_Roughness.png"
        },
        {
            "mimeType" : "image/png",
            "name" : "Set_03_Normal",
            "uri" : "Set_03_Normal.png"
        },
        {
            "mimeType" : "image/png",
            "name" : "Set_03_Base_color",
            "uri" : "Set_03_Base_color.png"
        },
        {
            "mimeType" : "image/png",
            "name" : "Set_03_Metallic.png-Set_03_Roughness",
            "uri" : "Set_03_Metallic_png-Set_03_Roughness.png"
        },
        {
            "mimeType" : "image/png",
            "name" : "Set_02_Normal",
            "uri" : "Set_02_Normal.png"
        },
        {
            "mimeType" : "image/png",
            "name" : "Set_02_Base_color",
            "uri" : "Set_02_Base_color.png"
        },
        {
            "mimeType" : "image/png",
            "name" : "Set_02_Metallic-Set_02_Roughness",
            "uri" : "Set_02_Metallic-Set_02_Roughness.png"
        }
    ],
    "accessors" : [
        {
            "bufferView" : 0,
            "componentType" : 5126,
            "count" : 5114,
            "max" : [
                0.41179415583610535,
                0.9020484089851379,
                0.09373782575130463
            ],
            "min" : [
                -0.5310582518577576,
                0.2692421078681946,
                -0.09373772144317627
            ],
            "type" : "VEC3"
        },
        {
            "bufferView" : 1,
            "componentType" : 5126,
            "count" : 5114,
            "type" : "VEC3"
        },
        {
            "bufferView" : 2,
            "componentType" : 5126,
            "count" : 5114,
            "type" : "VEC2"
        },
        {
            "bufferView" : 3,
            "componentType" : 5123,
            "count" : 20010,
            "type" : "SCALAR"
        },
        {
            "bufferView" : 4,
            "componentType" : 5126,
            "count" : 1740,
            "max" : [
                0.3752841353416443,
                0.876883327960968,
                0.09298854321241379
            ],
            "min" : [
                -0.5071398615837097,
                0.2707408368587494,
                -0.09298843890428543
            ],
            "type" : "VEC3"
        },
        {
            "bufferView" : 5,
            "componentType" : 5126,
            "count" : 1740,
            "type" : "VEC3"
        },
        {
            "bufferView" : 6,
            "componentType" : 5126,
            "count" : 1740,
            "type" : "VEC2"
        },
        {
            "bufferView" : 7,
            "componentType" : 5123,
            "count" : 6996,
            "type" : "SCALAR"
        },
        {
            "bufferView" : 8,
            "componentType" : 5126,
            "count" : 930,
            "max" : [
                0.6989762783050537,
                1.0474395751953125,
                0.21249614655971527
            ],
            "min" : [
                -0.6938740015029907,
                0.1500052809715271,
                -0.2654571831226349
            ],
            "type" : "VEC3"
        },
        {
            "bufferView" : 9,
            "componentType" : 5126,
            "count" : 930,
            "type" : "VEC3"
        },
        {
            "bufferView" : 10,
            "componentType" : 5126,
            "count" : 930,
            "type" : "VEC2"
        },
        {
            "bufferView" : 11,
            "componentType" : 5123,
            "count" : 930,
            "normalized" : true,
            "type" : "VEC4"
        },
        {
            "bufferView" : 12,
            "componentType" : 5123,
            "count" : 930,
            "normalized" : true,
            "type" : "VEC4"
        },
        {
            "bufferView" : 13,
            "componentType" : 5123,
            "count" : 2544,
            "type" : "SCALAR"
        },
        {
            "bufferView" : 14,
            "componentType" : 5126,
            "count" : 86035,
            "max" : [
                0.8690006136894226,
                1.0473603010177612,
                0.4108807444572449
            ],
            "min" : [
                -0.8444038033485413,
                -0.007881361991167068,
                -0.4108804166316986
            ],
            "type" : "VEC3"
        },
        {
            "bufferView" : 15,
            "componentType" : 5126,
            "count" : 86035,
            "type" : "VEC3"
        },
        {
            "bufferView" : 16,
            "componentType" : 5126,
            "count" : 86035,
            "type" : "VEC2"
        },
        {
            "bufferView" : 17,
            "componentType" : 5125,
            "count" : 295458,
            "type" : "SCALAR"
        },
        {
            "bufferView" : 18,
            "componentType" : 5126,
            "count" : 164,
            "max" : [
                0.4099464416503906,
                0.762031614780426,
                0.025968754664063454
            ],
            "min" : [
                0.3589111864566803,
                0.7427364587783813,
                -0.028163602575659752
            ],
            "type" : "VEC3"
        },
        {
            "bufferView" : 19,
            "componentType" : 5126,
            "count" : 164,
            "type" : "VEC3"
        },
        {
            "bufferView" : 20,
            "componentType" : 5126,
            "count" : 164,
            "type" : "VEC2"
        },
        {
            "bufferView" : 21,
            "componentType" : 5123,
            "count" : 480,
            "type" : "SCALAR"
        },
        {
            "bufferView" : 22,
            "componentType" : 5126,
            "count" : 867,
            "max" : [
                0.3616999089717865,
                0.8855394124984741,
                0.03641352429986
            ],
            "min" : [
                0.29813653230667114,
                0.8386837244033813,
                -0.03641326725482941
            ],
            "type" : "VEC3"
        },
        {
            "bufferView" : 23,
            "componentType" : 5126,
            "count" : 867,
            "type" : "VEC3"
        },
        {
            "bufferView" : 24,
            "componentType" : 5126,
            "count" : 867,
            "type" : "VEC2"
        },
        {
            "bufferView" : 25,
            "componentType" : 5123,
            "count" : 3522,
            "type" : "SCALAR"
        }
    ],
    "bufferViews" : [
        {
            "buffer" : 0,
            "byteLength" : 61368,
            "byteOffset" : 0
        },
        {
            "buffer" : 0,
            "byteLength" : 61368,
            "byteOffset" : 61368
        },
        {
            "buffer" : 0,
            "byteLength" : 40912,
            "byteOffset" : 122736
        },
        {
            "buffer" : 0,
            "byteLength" : 40020,
            "byteOffset" : 163648
        },
        {
            "buffer" : 0,
            "byteLength" : 20880,
            "byteOffset" : 203668
        },
        {
            "buffer" : 0,
            "byteLength" : 20880,
            "byteOffset" : 224548
        },
        {
            "buffer" : 0,
            "byteLength" : 13920,
            "byteOffset" : 245428
        },
        {
            "buffer" : 0,
            "byteLength" : 13992,
            "byteOffset" : 259348
        },
        {
            "buffer" : 0,
            "byteLength" : 11160,
            "byteOffset" : 273340
        },
        {
            "buffer" : 0,
            "byteLength" : 11160,
            "byteOffset" : 284500
        },
        {
            "buffer" : 0,
            "byteLength" : 7440,
            "byteOffset" : 295660
        },
        {
            "buffer" : 0,
            "byteLength" : 7440,
            "byteOffset" : 303100
        },
        {
            "buffer" : 0,
            "byteLength" : 7440,
            "byteOffset" : 310540
        },
        {
            "buffer" : 0,
            "byteLength" : 5088,
            "byteOffset" : 317980
        },
        {
            "buffer" : 0,
            "byteLength" : 1032420,
            "byteOffset" : 323068
        },
        {
            "buffer" : 0,
            "byteLength" : 1032420,
            "byteOffset" : 1355488
        },
        {
            "buffer" : 0,
            "byteLength" : 688280,
            "byteOffset" : 2387908
        },
        {
            "buffer" : 0,
            "byteLength" : 1181832,
            "byteOffset" : 3076188
        },
        {
            "buffer" : 0,
            "byteLength" : 1968,
            "byteOffset" : 4258020
        },
        {
            "buffer" : 0,
            "byteLength" : 1968,
            "byteOffset" : 4259988
        },
        {
            "buffer" : 0,
            "byteLength" : 1312,
            "byteOffset" : 4261956
        },
        {
            "buffer" : 0,
            "byteLength" : 960,
            "byteOffset" : 4263268
        },
        {
            "buffer" : 0,
            "byteLength" : 10404,
            "byteOffset" : 4264228
        },
        {
            "buffer" : 0,
            "byteLength" : 10404,
            "byteOffset" : 4274632
        },
        {
            "buffer" : 0,
            "byteLength" : 6936,
            "byteOffset" : 4285036
        },
        {
            "buffer" : 0,
            "byteLength" : 7044,
            "byteOffset" : 4291972
        }
    ],
    "samplers" : [
        {
            "magFilter" : 9729,
            "minFilter" : 9987
        }
    ],
    "buffers" : [
        {
            "byteLength" : 4299016,
            "uri" : "F3i_Black.bin"
        }
    ]
}
